<svg width="129" height="46" viewBox="0 0 129 46" fill="none" xmlns="http://www.w3.org/2000/svg">
<g clip-path="url(#clip0_2815_17495)">
<path d="M45.8576 30.8201C42.4456 22.7914 38.615 14.6899 34.2454 6.44279C33.2489 4.5033 31.7288 2.87445 29.8535 1.7367C27.9783 0.598944 25.8211 -0.0032959 23.621 -0.0032959C21.4208 -0.0032959 19.2636 0.598944 17.3884 1.7367C15.5131 2.87445 13.9931 4.5033 12.9965 6.44279C8.36236 15.1303 4.20031 23.2251 0.942329 30.8201C-2.15828 38.0177 2.83082 45.9967 10.8435 45.9967H11.6739C11.8645 45.9986 12.0524 45.952 12.2195 45.8614C12.3867 45.7708 12.5274 45.6392 12.6283 45.4793C12.7291 45.3194 12.7867 45.1365 12.7955 44.9482C12.8043 44.76 12.764 44.5726 12.6784 44.4042L11.3793 41.8549C11.2968 41.6911 11.2568 41.5096 11.263 41.3267C11.2691 41.1438 11.3212 40.9653 11.4146 40.8073C11.5079 40.6493 11.6396 40.5168 11.7977 40.4217C11.9558 40.3265 12.1353 40.2718 12.3202 40.2624L34.3626 39.1136C35.1997 39.0639 35.26 39.8817 34.9385 40.6399L33.8402 44.4737C33.7693 44.6422 33.7417 44.8255 33.7601 45.007C33.7784 45.1886 33.842 45.3629 33.9452 45.5142C34.0485 45.6654 34.188 45.789 34.3515 45.8738C34.5149 45.9586 34.697 46.002 34.8816 46H35.9564C43.9658 46 48.9247 38.0376 45.8576 30.8201ZM34.4195 32.6476L12.7588 36.2431C12.5572 36.2851 12.3477 36.2714 12.1535 36.2034C11.9592 36.1355 11.7876 36.016 11.6576 35.8579C11.5275 35.6999 11.444 35.5095 11.4162 35.3077C11.3883 35.1058 11.4173 34.9002 11.4998 34.7136C14.6908 27.5391 18.8395 20.6162 22.285 14.6933C22.3997 14.4794 22.5696 14.2994 22.7773 14.1713C22.9851 14.0433 23.2234 13.9718 23.468 13.964C23.7127 13.9563 23.9551 14.0126 24.1707 14.1273C24.3863 14.242 24.5675 14.411 24.6958 14.6171C28.4326 19.8481 32.1627 25.2315 35.193 31.0551C35.274 31.2073 35.3179 31.3761 35.3212 31.548C35.3245 31.7199 35.287 31.8902 35.2119 32.0453C35.1367 32.2003 35.0259 32.3358 34.8883 32.441C34.7508 32.5462 34.5902 32.6181 34.4195 32.6509V32.6476Z" fill="#0D2D5F"/>
<path d="M69.002 15.8554V18.014C68.4931 16.5639 66.6581 15.5309 64.1837 15.5309C63.1756 15.5089 62.1743 15.6978 61.2453 16.0852C60.3162 16.4726 59.4805 17.0498 58.7928 17.7789C58.0786 18.5131 57.52 19.381 57.1497 20.3316C56.7794 21.2822 56.6049 22.2963 56.6364 23.3145C56.6103 24.3385 56.7888 25.3575 57.1617 26.3131C57.5346 27.2687 58.0946 28.1421 58.8095 28.8833C59.5033 29.6028 60.3408 30.1719 61.2688 30.5543C62.1969 30.9367 63.1952 31.1242 64.2004 31.1048C66.6816 31.1048 68.5098 30.0652 69.0188 28.6151V30.777H72.6149V15.8554H69.002ZM67.9238 26.5723C67.4979 26.9966 66.9891 27.3308 66.4285 27.5544C65.8678 27.7781 65.267 27.8867 64.6625 27.8735C64.0665 27.8868 63.4742 27.7781 62.9227 27.5542C62.3713 27.3303 61.8726 26.996 61.4581 26.5723C60.6472 25.6773 60.1988 24.5179 60.1988 23.3162C60.1988 22.1145 60.6472 20.9551 61.4581 20.06C61.8734 19.6373 62.3722 19.3033 62.9234 19.0789C63.4746 18.8545 64.0665 18.7445 64.6625 18.7556C65.2671 18.7438 65.8678 18.8533 66.4283 19.0775C66.9888 19.3017 67.4976 19.636 67.9238 20.06C68.7898 20.9275 69.2754 22.0973 69.2754 23.3162C69.2754 24.5351 68.7898 25.7049 67.9238 26.5723Z" fill="#0D2D5F"/>
<path d="M75.0742 30.777V10.1409H78.6369V17.9279C79.3267 16.5043 80.9808 15.5574 83.04 15.5574C86.5123 15.5574 88.5481 17.8385 88.5481 21.54V30.777H84.9854V22.0432C84.9854 20.0004 83.8771 18.7324 81.9719 18.7324C80.0667 18.7324 78.647 20.156 78.647 22.1955V30.7837L75.0742 30.777Z" fill="#0D2D5F"/>
<path d="M104.447 17.6895C102.862 16.2261 100.775 15.4121 98.6061 15.4121C96.4375 15.4121 94.3498 16.2261 92.7648 17.6895C92.0059 18.4222 91.4028 19.2976 90.9911 20.2642C90.5793 21.2308 90.3672 22.269 90.3672 23.3178C90.3672 24.3667 90.5793 25.4049 90.9911 26.3715C91.4028 27.338 92.0059 28.2134 92.7648 28.9462C94.3487 30.4118 96.4368 31.2273 98.6061 31.2273C100.775 31.2273 102.864 30.4118 104.447 28.9462C105.206 28.2134 105.809 27.338 106.221 26.3715C106.633 25.4049 106.845 24.3667 106.845 23.3178C106.845 22.269 106.633 21.2308 106.221 20.2642C105.809 19.2976 105.206 18.4222 104.447 17.6895ZM101.929 26.6617C101.033 27.5159 99.8361 27.9931 98.5911 27.9931C97.346 27.9931 96.1494 27.5159 95.2527 26.6617C94.3828 25.7623 93.9085 24.5588 93.9335 23.3145C93.9186 22.7035 94.0276 22.0958 94.2542 21.5271C94.4808 20.9585 94.8203 20.4405 95.2527 20.0038C96.1403 19.1324 97.3403 18.6434 98.5911 18.6434C99.8418 18.6434 101.042 19.1324 101.929 20.0038C102.37 20.4357 102.716 20.9523 102.946 21.5218C103.177 22.0913 103.286 22.7014 103.269 23.3145C103.284 23.9327 103.173 24.5477 102.943 25.1227C102.713 25.6977 102.368 26.2211 101.929 26.6617Z" fill="#0D2D5F"/>
<path d="M112.702 30.9856L106.504 15.8553H110.187L114.59 26.7511L119.111 15.8553H122.794L113.931 36.5213H110.278L112.702 30.9856Z" fill="#0D2D5F"/>
<path d="M125.286 25.5659L124.656 10.1409H128.999L128.37 25.5659H125.286Z" fill="#0D2D5F"/>
<path d="M125.378 27.6682C125.667 27.3853 126.035 27.1933 126.434 27.1164C126.833 27.0396 127.247 27.0813 127.623 27.2363C127.998 27.3913 128.319 27.6528 128.545 27.9876C128.77 28.3225 128.891 28.7159 128.891 29.1183C128.891 29.5207 128.77 29.9141 128.545 30.249C128.319 30.5839 127.998 30.8453 127.623 31.0003C127.247 31.1554 126.833 31.1971 126.434 31.1202C126.035 31.0434 125.667 30.8514 125.378 30.5685C125.185 30.3781 125.032 30.1521 124.928 29.9032C124.823 29.6544 124.77 29.3877 124.77 29.1183C124.77 28.849 124.823 28.5822 124.928 28.3334C125.032 28.0846 125.185 27.8585 125.378 27.6682Z" fill="#0D2D5F"/>
</g>
<defs>
<clipPath id="clip0_2815_17495">
<rect width="129" height="46" fill="white"/>
</clipPath>
</defs>
</svg>
